#!OML:ASF I:\golf\golf\golf 2\Subject 1\2002-09-07\Subject1.ASF
:FULLY-SPECIFIED
:DEGREES
321
root -0.52814 17.9883 -3.34954 52.8327 24.6223 17.4202
lowerback 35.3815 3.13359 6.4152
upperback 11.5711 7.15913 9.88379
thorax -5.62284 3.34589 4.48795
lowerneck -14.3066 -12.234 -1.65862
upperneck -5.82819 -16.3492 4.01312
head 0.955989 -8.26396 0.645649
rclavicle -1.27222e-014 7.83212e-014
rhumerus 12.7624 16.0951 -42.0664
rradius 24.2087
rwrist -12.1981
rhand -7.92949 6.91763
rfingers 7.12502
rthumb 17.9767 -22.2716
lclavicle -1.27222e-014 7.83212e-014
lhumerus -22.3965 -29.3513 100.245
lradius 83.6021
lwrist 14.1831
lhand -12.2489 29.4289
lfingers 7.12502
lthumb 13.8171 58.95
rfemur -68.3728 -8.13139 12.1288
rtibia 35.051
rfoot -6.72486 -11.8092
rtoes 19.6112
lfemur -29.4111 -1.24421 -18.3857
ltibia 24.9972
lfoot 1.74029 -6.50637
ltoes -15.5108
322
root -0.511283 18.0001 -3.36652 52.2528 24.8564 17.1898
lowerback 34.9589 3.0935 6.41729
upperback 11.4408 7.08811 9.90628
thorax -5.61446 3.31851 4.54667
lowerneck -14.4446 -12.2167 -1.64551
upperneck -5.76436 -16.319 4.06474
head 1.00306 -8.24259 0.648886
rclavicle -1.04958e-013 -3.57812e-015
rhumerus 11.3702 16.846 -43.0035
rradius 24.3612
rwrist -12.7749
rhand -8.50698 7.36278
rfingers 7.12502
rthumb 17.421 -21.8766
lclavicle -1.04958e-013 -3.57812e-015
lhumerus -22.6849 -29.1658 100.273
lradius 83.2066
lwrist 13.9291
lhand -12.254 29.6951
lfingers 7.12502
lthumb 13.8122 59.2165
rfemur -67.7792 -8.17329 12.4728
rtibia 34.9074
rfoot -7.03962 -11.7221
rtoes 20.6137
lfemur -29.6873 -1.34316 -18.3653
ltibia 25.0699
lfoot 0.922404 -6.27864
ltoes -14.4339
323
root -0.49264 18.009 -3.38679 51.7409 25.0577 16.9989
lowerback 34.5341 2.98526 6.45155
upperback 11.2749 6.93886 9.85295
thorax -5.62168 3.25525 4.53568
lowerneck -14.6976 -12.1805 -1.61763
upperneck -5.62434 -16.2649 4.11218
head 1.09235 -8.20643 0.639614
rclavicle -5.40694e-014 -1.15891e-013
rhumerus 9.94068 17.2237 -44.3187
rradius 24.5726
rwrist -12.6485
rhand -9.25946 7.75666
rfingers 7.12502
rthumb 16.6967 -21.5453
lclavicle -5.40694e-014 -1.15891e-013
lhumerus -22.9557 -28.8542 100.223
lradius 82.7842
lwrist 13.6084
lhand -12.1397 29.8642
lfingers 7.12502
lthumb 13.9224 59.3781
rfemur -67.2265 -8.20205 12.7044
rtibia 34.7212
rfoot -7.24173 -11.7114
rtoes 21.5644
lfemur -30.0669 -1.25841 -18.5061
ltibia 25.2345
lfoot -0.0400285 -6.39184
ltoes -15.3378
324
root -0.479519 18.0206 -3.40532 51.1722 25.2623 16.6031
lowerback 34.1183 2.94912 6.46334
upperback 11.0928 6.87446 9.8429
thorax -5.66232 3.22811 4.55019
lowerneck -14.8553 -12.1546 -1.7282
upperneck -5.52103 -16.2031 4.25397
head 1.17505 -8.16319 0.685891
rclavicle -6.36111e-014 -6.12008e-014
rhumerus 8.49426 18.0253 -45.3188
rradius 25.0848
rwrist -12.9783
rhand -10.1998 7.80339
rfingers 7.12502
rthumb 15.7913 -21.5725
lclavicle -6.36111e-014 -6.12008e-014
lhumerus -23.2247 -28.5479 100.192
lradius 82.1876
lwrist 13.3113
lhand -12.1043 29.965
lfingers 7.12502
lthumb 13.9565 59.4766
rfemur -66.7083 -8.04554 13.068
rtibia 34.5113
rfoot -7.18628 -11.6906
rtoes 21.2962
lfemur -30.4577 -1.05224 -18.4746
ltibia 25.4467
lfoot -1.01912 -6.55225
ltoes -16.287
325
root -0.465851 18.0336 -3.42147 50.4978 25.6059 16.0894
lowerback 33.9256 2.74168 6.72479
upperback 10.7976 6.71229 9.80087
thorax -5.86522 3.14992 4.42425
lowerneck -14.7748 -12.0907 -2.07653
upperneck -5.55115 -16.0523 4.6193
head 1.21448 -8.07028 0.859203
rclavicle -1.30403e-013 -4.12975e-014
rhumerus 7.03791 17.7952 -47.066
rradius 25.2189
rwrist -12.0442
rhand -11.2311 8.02282
rfingers 7.12502
rthumb 14.7978 -21.4289
lclavicle -1.30403e-013 -4.12975e-014
lhumerus -23.5692 -28.0081 100.128
lradius 81.4045
lwrist 13.0696
lhand -12.1518 29.7209
lfingers 7.12502
lthumb 13.9107 59.2356
rfemur -66.108 -7.93844 13.6836
rtibia 34.297
rfoot -7.33924 -11.5951
rtoes 21.3823
lfemur -30.8147 -0.978136 -18.1951
ltibia 25.6885
lfoot -1.9806 -6.63479
ltoes -16.1205
326
root -0.448513 18.042 -3.43892 49.9436 25.7653 15.744
lowerback 33.4659 2.69703 6.76104
upperback 10.5808 6.63829 9.76151
thorax -5.91648 3.11824 4.39869
lowerneck -14.6365 -12.0954 -2.18375
upperneck -5.7124 -16.0334 4.84391
head 1.16866 -8.05607 0.9576
rclavicle -6.36111e-014 -2.84262e-014
rhumerus 5.54952 18.2641 -48.0919
rradius 25.6543
rwrist -12.3686
rhand -12.3343 8.19005
rfingers 7.12502
rthumb 13.7348 -21.3366
lclavicle -6.36111e-014 -2.84262e-014
lhumerus -23.7151 -27.6944 100.171
lradius 80.3754
lwrist 12.8832
lhand -12.1817 29.2934
lfingers 7.12502
lthumb 13.8819 58.8101
rfemur -65.5922 -7.91732 14.0624
rtibia 34.1022
rfoot -7.53768 -11.4429
rtoes 22.3201
lfemur -31.2275 -1.06525 -18.1747
ltibia 25.9266
lfoot -3.12755 -6.53095
ltoes -16.7448
327
root -0.432403 18.0507 -3.4537 49.3173 25.7803 15.4402
lowerback 33.1137 2.6544 6.65259
upperback 10.4154 6.52121 9.65933
thorax -5.95741 3.06618 4.39408
lowerneck -14.7808 -12.0909 -2.29777
upperneck -5.64746 -16.0001 5.05004
head 1.24362 -8.02659 1.02566
rclavicle 0 5.38706e-014
rhumerus 4.19931 18.707 -49.2524
rradius 26.0455
rwrist -12.7295
rhand -13.4967 8.34185
rfingers 7.12502
rthumb 12.6144 -21.2573
lclavicle 0 5.38706e-014
lhumerus -23.7877 -27.3677 100.072
lradius 79.4371
lwrist 12.7107
lhand -12.1756 29.1972
lfingers 7.12502
lthumb 13.8878 58.7135
rfemur -64.9986 -7.79507 14.2561
rtibia 33.9442
rfoot -7.36137 -11.3181
rtoes 21.9275
lfemur -31.5079 -1.16302 -18.2689
ltibia 26.1086
lfoot -4.21646 -6.21473
ltoes -16.2997
328
root -0.417755 18.0565 -3.47014 48.6984 25.8309 15.0708
lowerback 32.7192 2.62608 6.55673
upperback 10.2345 6.42896 9.61133
thorax -6.0052 3.02493 4.43252
lowerneck -14.8992 -12.0909 -2.46356
upperneck -5.60167 -15.9654 5.20828
head 1.30781 -7.9971 1.08999
rclavicle 8.5875e-014 9.85972e-014
rhumerus 2.89218 18.8834 -50.448
rradius 26.3024
rwrist -12.8048
rhand -14.7006 8.3742
rfingers 7.12502
rthumb 11.4535 -21.2929
lclavicle 8.5875e-014 9.85972e-014
lhumerus -24.0069 -27.0888 100.057
lradius 78.7245
lwrist 12.4725
lhand -12.1913 29.3202
lfingers 7.12502
lthumb 13.8726 58.8375
rfemur -64.4668 -7.65835 14.5593
rtibia 33.8155
rfoot -7.09237 -11.1961
rtoes 20.5765
lfemur -31.8479 -1.15953 -18.2913
ltibia 26.257
lfoot -5.10411 -6.05585
ltoes -15.7769
329
root -0.401201 18.0597 -3.48799 48.0937 25.8935 14.6842
lowerback 32.1715 2.53939 6.51288
upperback 10.1025 6.25586 9.53482
thorax -5.92348 2.95124 4.44988
lowerneck -14.922 -12.0576 -2.61835
upperneck -5.68632 -15.8867 5.42468
head 1.3159 -7.94831 1.18488
rclavicle -1.27222e-014 -6.16232e-014
rhumerus 1.75056 18.6174 -51.7487
rradius 26.4219
rwrist -12.4564
rhand -15.7061 8.64294
rfingers 7.12502
rthumb 10.4837 -21.0756
lclavicle -1.27222e-014 -6.16232e-014
lhumerus -24.1958 -26.6634 99.986
lradius 78.0655
lwrist 12.2231
lhand -12.2641 29.3825
lfingers 7.12502
lthumb 13.8025 58.9046
rfemur -63.9737 -7.56094 14.8971
rtibia 33.6908
rfoot -7.06408 -11.0363
rtoes 19.94
lfemur -32.2205 -1.1694 -18.2937
ltibia 26.4091
lfoot -5.9896 -5.95196
ltoes -16.5658
